<svg version="1.1" xmlns="http://www.w3.org/2000/svg" xmlns:xlink="http://www.w3.org/1999/xlink" x="0px" y="0px" viewBox="0 0 100 86" enable-background="new 0 0 100 86" xml:space="preserve"><path fill-rule="evenodd" clip-rule="evenodd" d="M13.4,78.9c0,0,4.1,7.1,6.8,7.1l59.9-0.1c0,0,5.9-3.5,6.9-7.2L93.7,40L6.7,39.9L13.4,78.9z M94.8,20.1h-7.7c0,0-0.2,6.5-7.3,6.5H67.2c-8,0-7.7-6.6-7.7-6.6H40.3c0,0,0.3,6.3-7,6.6l-13.5,0c-7.8,0-6.4-6.6-6.4-6.6H6.6c0,0-6.6,0.1-6.6,6c0,0-0.4,6.8,6.5,6.8l88.1,0.2c0,0,5.4-1.1,5.4-6.6C100,26.4,98.3,20.1,94.8,20.1z M68.3,20h8.4c3.3,0,3.3-1.5,3.3-3.3L68.1,3.3c0-1.8-3.3-3.3-3.3-3.3h-10c-3.1,0-3.3,1.5-3.3,3.3l12.9,13.4C64.8,18.9,67.7,19.9,68.3,20z M23.4,20h8.8c0.6-0.1,2.8-1.2,3.3-3.3L47,3.3C47,1.5,47.6,0,43.6,0h-9.2c0,0-1.7,1.1-3.3,3.3L20,16.7C20,18.6,20.1,20,23.4,20z"/></svg>