<?xml version="1.0" encoding="utf-8"?>
<svg version="1.1" xmlns="http://www.w3.org/2000/svg" xmlns:xlink="http://www.w3.org/1999/xlink" x="0px" y="0px"
	 viewBox="0 0 383.8 277.9" style="enable-background:new 0 0 383.8 277.9;" xml:space="preserve">
		<path d="M18,231.4v24.2H0v-66.4h21.8c18.1,0,27.1,6.5,27.1,19.6c0,7.7-3.8,13.6-11.3,17.9l19.4,29H36.6l-14.1-24.2H18z M18,217.9
			h3.4c6.3,0,9.4-2.8,9.4-8.3c0-4.6-3.1-6.9-9.2-6.9H18V217.9z"/>
		<path d="M111.1,229.7c0,8.4-2.3,15-6.8,19.7c-4.5,4.7-10.9,7.1-19,7.1c-7.8,0-14-2.4-18.7-7.2c-4.6-4.8-6.9-11.3-6.9-19.5
			c0-8.4,2.3-14.9,6.8-19.6c4.5-4.7,10.9-7,19.1-7c5.1,0,9.5,1.1,13.4,3.2c3.9,2.2,6.9,5.2,9,9.2
			C110.1,219.6,111.1,224.3,111.1,229.7z M77.8,229.7c0,4.4,0.6,7.8,1.8,10.1c1.2,2.3,3.2,3.5,6,3.5c2.8,0,4.7-1.2,5.8-3.5
			c1.1-2.3,1.7-5.7,1.7-10.1c0-4.4-0.6-7.7-1.7-10c-1.2-2.2-3.1-3.4-5.9-3.4c-2.7,0-4.7,1.1-5.9,3.3
			C78.4,221.9,77.8,225.3,77.8,229.7z"/>
		<path d="M144.7,256.5c-8.4,0-14.8-2.3-19.2-6.8c-4.3-4.5-6.5-11.1-6.5-19.6c0-8.5,2.3-15.2,7-19.9c4.7-4.7,11.4-7,20-7
			c6,0,11.6,1.3,16.9,3.9l-5.2,13.1c-2.2-0.9-4.1-1.7-6-2.2c-1.8-0.6-3.7-0.8-5.7-0.8c-2.9,0-5.1,1.1-6.7,3.4
			c-1.6,2.2-2.4,5.4-2.4,9.5c0,8.2,3,12.4,9.1,12.4c5.2,0,10.2-1.5,15-4.5v14.1C156.6,255,151.1,256.5,144.7,256.5z"/>
		<path d="M188.7,226.6c2.2-3.4,4-6.1,5.5-8l11.5-14.5h19.8L207.6,226l19,29.6h-20.3l-11.3-18.5l-5.8,4.4v14h-17.9v-70.7h17.9v27.8
			c0,4.8-0.3,9.4-1,14H188.7z"/>
		<path d="M257.6,256.5c-8.6,0-15.2-2.3-20-6.8c-4.7-4.6-7.1-11.1-7.1-19.5c0-8.7,2.2-15.4,6.6-20c4.4-4.7,10.7-7,18.8-7
			c7.8,0,13.7,2,18,6.1c4.2,4,6.3,9.9,6.3,17.5v7.9h-31.8c0.1,2.9,1.2,5.1,3.2,6.8c2,1.6,4.7,2.5,8.1,2.5c3.1,0,6-0.3,8.6-0.9
			c2.6-0.6,5.5-1.6,8.5-3v12.8c-2.8,1.4-5.7,2.4-8.6,3C265.3,256.2,261.8,256.5,257.6,256.5z M256.6,215.2c-2.1,0-3.8,0.7-5.2,2
			s-2.2,3.4-2.5,6.2h15.3c-0.1-2.5-0.8-4.5-2.1-6C260.7,216,258.9,215.2,256.6,215.2z"/>
		<path d="M315.5,242.4c2.4,0,5.3-0.6,8.6-1.8v13c-2.4,1-4.7,1.8-6.8,2.2c-2.2,0.4-4.7,0.7-7.6,0.7c-6,0-10.3-1.5-12.9-4.4
			c-2.6-2.9-4-7.4-4-13.5v-21.2h-6.2v-7.2l7.9-5.6l4.6-10.8h11.6v10.3h12.6v13.3h-12.6v20C310.7,240.8,312.3,242.4,315.5,242.4z"/>
		<path d="M326.9,204.1h18.7l8.7,29.5c0.4,1.5,0.7,3.4,0.9,5.6h0.4c0.2-2.1,0.6-3.9,1.1-5.5l9-29.6h18.1l-20.4,54.8
			c-2.6,7-5.8,11.9-9.6,14.8c-3.8,2.9-8.8,4.3-14.9,4.3c-2.4,0-4.8-0.3-7.3-0.8v-14c1.6,0.4,3.4,0.5,5.5,0.5c1.6,0,3-0.3,4.1-0.9
			c1.2-0.6,2.2-1.5,3.1-2.6c0.9-1.1,1.8-2.9,2.8-5.4L326.9,204.1z"/>
		<path d="M255.7,1.4C233.3,8.9,198.8,24,170.8,52c-3.7,3.7-7.2,7.6-10.5,11.5c-7.9-4.4-23.9,2-37.4,15.5
			c-14.8,14.8-28.8,54.1-14,39.4c25.2-25.2,27.4-15.4,31.1-11.6c0.3,5.8,2,11,4.9,15.3c-0.9,1.5-2,3.2-3.3,5
			c-4.1,5.8,1.2,4.3,7.8,0.1c4.7,4.2,11,6.7,18.2,7c4.1,3.4,10.8,7-12.5,30.3c-14.8,14.8,24.6,0.7,39.4-14
			c12.9-12.9,19.4-28.1,16-36.4c4-3.4,7.9-6.9,11.8-10.7c28-28,43.2-62.5,50.6-84.9C277.4,4.4,269.7-3.3,255.7,1.4z"/>
		<path d="M154.4,136.9c3.5-10.6-34.4,21.5-17.2-17.2c3.4-7.8,1.3-11.3-5.9-4c-14.5,14.5-17.6,36-18.2,43.1
			c-0.1,1.3,0.9,2.3,2.2,2.2c7.1-0.6,28.6-3.7,43.1-18.2C165.6,135.6,151.7,144.9,154.4,136.9z"/>
</svg>