<svg style="display:none"><symbol viewBox="0 0 8 12" id="svg-back-arrow"><title>back-arrow</title> <path fill-rule="evenodd" clip-rule="evenodd" d="M7.4,3.1L5.7,4.7C5,5.4,5,6.6,5.7,7.3l1.7,1.7C8.6,10.1,7.8,12,6.1,12
	h0c-0.5,0-1-0.2-1.3-0.5L0.5,7.3c-0.7-0.7-0.7-1.8,0-2.5l4.3-4.2C5.2,0.2,5.6,0,6.1,0l0,0C7.8,0,8.6,1.9,7.4,3.1z"/> </symbol><symbol viewBox="0 0 100 86" id="svg-cart"><title>cart</title><path fill-rule="evenodd" clip-rule="evenodd" d="M13.4,78.9c0,0,4.1,7.1,6.8,7.1l59.9-0.1c0,0,5.9-3.5,6.9-7.2L93.7,40L6.7,39.9L13.4,78.9z M94.8,20.1h-7.7c0,0-0.2,6.5-7.3,6.5H67.2c-8,0-7.7-6.6-7.7-6.6H40.3c0,0,0.3,6.3-7,6.6l-13.5,0c-7.8,0-6.4-6.6-6.4-6.6H6.6c0,0-6.6,0.1-6.6,6c0,0-0.4,6.8,6.5,6.8l88.1,0.2c0,0,5.4-1.1,5.4-6.6C100,26.4,98.3,20.1,94.8,20.1z M68.3,20h8.4c3.3,0,3.3-1.5,3.3-3.3L68.1,3.3c0-1.8-3.3-3.3-3.3-3.3h-10c-3.1,0-3.3,1.5-3.3,3.3l12.9,13.4C64.8,18.9,67.7,19.9,68.3,20z M23.4,20h8.8c0.6-0.1,2.8-1.2,3.3-3.3L47,3.3C47,1.5,47.6,0,43.6,0h-9.2c0,0-1.7,1.1-3.3,3.3L20,16.7C20,18.6,20.1,20,23.4,20z"/></symbol><symbol viewBox="0 0 63 63" id="svg-facebook"><title>facebook</title> <path d="M23.3,26.8H28v-2.9c0-4.2,3.1-7.6,7-7.6h4.7V22H35c-0.5,0-1.2,0.8-1.2,1.8v3h5.8v5.8h-5.8v14.2H28V32.6h-4.7
	V26.8L23.3,26.8z M31.5,63C48.9,63,63,48.9,63,31.5C63,14.2,48.9,0,31.5,0C14.1,0,0,14.2,0,31.5C0,48.9,14.1,63,31.5,63L31.5,63z"/> </symbol></svg>